<mxfile host="app.diagrams.net" modified="2021-01-29T07:34:56.774Z" agent="5.0 (Macintosh; Intel Mac OS X 10_15_4) AppleWebKit/537.36 (KHTML, like Gecko) Chrome/75.0.3770.80 Safari/537.36" etag="YNLVO1R2rUZ0Ts7HzLhH" version="14.2.7" type="github">
  <diagram id="jfSitVgwEw0Z54wE7btM" name="Page-1">
    <mxGraphModel dx="1666" dy="771" grid="1" gridSize="10" guides="1" tooltips="1" connect="1" arrows="1" fold="1" page="1" pageScale="1" pageWidth="827" pageHeight="1169" math="0" shadow="0">
      <root>
        <mxCell id="0" />
        <mxCell id="1" parent="0" />
        <mxCell id="8gLS4Bl_DGE-_Ln-u56_-2" value="" style="rounded=0;whiteSpace=wrap;html=1;fillColor=#7EA6E0;" vertex="1" parent="1">
          <mxGeometry x="480" y="330" width="440" height="70" as="geometry" />
        </mxCell>
        <mxCell id="8gLS4Bl_DGE-_Ln-u56_-3" value="" style="shape=table;html=1;whiteSpace=wrap;startSize=0;container=1;collapsible=0;childLayout=tableLayout;strokeColor=#97D077;" vertex="1" parent="1">
          <mxGeometry x="480" y="480" width="120" height="120" as="geometry" />
        </mxCell>
        <mxCell id="8gLS4Bl_DGE-_Ln-u56_-4" value="" style="shape=partialRectangle;html=1;whiteSpace=wrap;collapsible=0;dropTarget=0;pointerEvents=0;fillColor=none;top=0;left=0;bottom=0;right=0;points=[[0,0.5],[1,0.5]];portConstraint=eastwest;" vertex="1" parent="8gLS4Bl_DGE-_Ln-u56_-3">
          <mxGeometry width="120" height="40" as="geometry" />
        </mxCell>
        <mxCell id="8gLS4Bl_DGE-_Ln-u56_-5" value="jobID" style="shape=partialRectangle;html=1;whiteSpace=wrap;connectable=0;overflow=hidden;fillColor=#97D077;top=0;left=0;bottom=0;right=0;" vertex="1" parent="8gLS4Bl_DGE-_Ln-u56_-4">
          <mxGeometry width="60" height="40" as="geometry" />
        </mxCell>
        <mxCell id="8gLS4Bl_DGE-_Ln-u56_-6" value="消息体" style="shape=partialRectangle;html=1;whiteSpace=wrap;connectable=0;overflow=hidden;fillColor=#F19C99;top=0;left=0;bottom=0;right=0;" vertex="1" parent="8gLS4Bl_DGE-_Ln-u56_-4">
          <mxGeometry x="60" width="60" height="40" as="geometry" />
        </mxCell>
        <mxCell id="8gLS4Bl_DGE-_Ln-u56_-7" value="" style="shape=partialRectangle;html=1;whiteSpace=wrap;collapsible=0;dropTarget=0;pointerEvents=0;fillColor=none;top=0;left=0;bottom=0;right=0;points=[[0,0.5],[1,0.5]];portConstraint=eastwest;" vertex="1" parent="8gLS4Bl_DGE-_Ln-u56_-3">
          <mxGeometry y="40" width="120" height="40" as="geometry" />
        </mxCell>
        <mxCell id="8gLS4Bl_DGE-_Ln-u56_-8" value="jobID" style="shape=partialRectangle;html=1;whiteSpace=wrap;connectable=0;overflow=hidden;fillColor=none;top=0;left=0;bottom=0;right=0;" vertex="1" parent="8gLS4Bl_DGE-_Ln-u56_-7">
          <mxGeometry width="60" height="40" as="geometry" />
        </mxCell>
        <mxCell id="8gLS4Bl_DGE-_Ln-u56_-9" value="消息体" style="shape=partialRectangle;html=1;whiteSpace=wrap;connectable=0;overflow=hidden;fillColor=none;top=0;left=0;bottom=0;right=0;" vertex="1" parent="8gLS4Bl_DGE-_Ln-u56_-7">
          <mxGeometry x="60" width="60" height="40" as="geometry" />
        </mxCell>
        <mxCell id="8gLS4Bl_DGE-_Ln-u56_-10" value="" style="shape=partialRectangle;html=1;whiteSpace=wrap;collapsible=0;dropTarget=0;pointerEvents=0;fillColor=none;top=0;left=0;bottom=0;right=0;points=[[0,0.5],[1,0.5]];portConstraint=eastwest;" vertex="1" parent="8gLS4Bl_DGE-_Ln-u56_-3">
          <mxGeometry y="80" width="120" height="40" as="geometry" />
        </mxCell>
        <mxCell id="8gLS4Bl_DGE-_Ln-u56_-11" value="jobID" style="shape=partialRectangle;html=1;whiteSpace=wrap;connectable=0;overflow=hidden;fillColor=#97D077;top=0;left=0;bottom=0;right=0;" vertex="1" parent="8gLS4Bl_DGE-_Ln-u56_-10">
          <mxGeometry width="60" height="40" as="geometry" />
        </mxCell>
        <mxCell id="8gLS4Bl_DGE-_Ln-u56_-12" value="消息体" style="shape=partialRectangle;html=1;whiteSpace=wrap;connectable=0;overflow=hidden;fillColor=#F19C99;top=0;left=0;bottom=0;right=0;" vertex="1" parent="8gLS4Bl_DGE-_Ln-u56_-10">
          <mxGeometry x="60" width="60" height="40" as="geometry" />
        </mxCell>
        <mxCell id="8gLS4Bl_DGE-_Ln-u56_-13" value="messages（保存消息体）" style="text;html=1;align=center;verticalAlign=middle;resizable=0;points=[];autosize=1;" vertex="1" parent="1">
          <mxGeometry x="465" y="610" width="150" height="20" as="geometry" />
        </mxCell>
        <mxCell id="8gLS4Bl_DGE-_Ln-u56_-14" value="" style="shape=table;html=1;whiteSpace=wrap;startSize=0;container=1;collapsible=0;childLayout=tableLayout;" vertex="1" parent="1">
          <mxGeometry x="350" y="480" width="60" height="40" as="geometry" />
        </mxCell>
        <mxCell id="8gLS4Bl_DGE-_Ln-u56_-15" value="" style="shape=partialRectangle;html=1;whiteSpace=wrap;collapsible=0;dropTarget=0;pointerEvents=0;fillColor=none;top=0;left=0;bottom=0;right=0;points=[[0,0.5],[1,0.5]];portConstraint=eastwest;" vertex="1" parent="8gLS4Bl_DGE-_Ln-u56_-14">
          <mxGeometry width="60" height="40" as="geometry" />
        </mxCell>
        <mxCell id="8gLS4Bl_DGE-_Ln-u56_-16" value="jobID" style="shape=partialRectangle;html=1;whiteSpace=wrap;connectable=0;overflow=hidden;fillColor=#E6D0DE;top=0;left=0;bottom=0;right=0;" vertex="1" parent="8gLS4Bl_DGE-_Ln-u56_-15">
          <mxGeometry width="60" height="40" as="geometry" />
        </mxCell>
        <mxCell id="8gLS4Bl_DGE-_Ln-u56_-17" value="message_id" style="text;html=1;align=center;verticalAlign=middle;resizable=0;points=[];autosize=1;" vertex="1" parent="1">
          <mxGeometry x="340" y="520" width="80" height="20" as="geometry" />
        </mxCell>
        <mxCell id="8gLS4Bl_DGE-_Ln-u56_-18" value="waiting（即时队列）" style="text;html=1;align=center;verticalAlign=middle;resizable=0;points=[];autosize=1;" vertex="1" parent="1">
          <mxGeometry x="640" y="400" width="120" height="20" as="geometry" />
        </mxCell>
        <mxCell id="8gLS4Bl_DGE-_Ln-u56_-19" value="" style="shape=table;html=1;whiteSpace=wrap;startSize=0;container=1;collapsible=0;childLayout=tableLayout;fillColor=#97D077;" vertex="1" parent="1">
          <mxGeometry x="510" y="345" width="40" height="40" as="geometry" />
        </mxCell>
        <mxCell id="8gLS4Bl_DGE-_Ln-u56_-20" value="" style="shape=partialRectangle;html=1;whiteSpace=wrap;collapsible=0;dropTarget=0;pointerEvents=0;fillColor=none;top=0;left=0;bottom=0;right=0;points=[[0,0.5],[1,0.5]];portConstraint=eastwest;" vertex="1" parent="8gLS4Bl_DGE-_Ln-u56_-19">
          <mxGeometry width="40" height="40" as="geometry" />
        </mxCell>
        <mxCell id="8gLS4Bl_DGE-_Ln-u56_-21" value="jobID" style="shape=partialRectangle;html=1;whiteSpace=wrap;connectable=0;overflow=hidden;fillColor=none;top=0;left=0;bottom=0;right=0;" vertex="1" parent="8gLS4Bl_DGE-_Ln-u56_-20">
          <mxGeometry width="40" height="40" as="geometry" />
        </mxCell>
        <mxCell id="8gLS4Bl_DGE-_Ln-u56_-22" value="" style="shape=table;html=1;whiteSpace=wrap;startSize=0;container=1;collapsible=0;childLayout=tableLayout;fillColor=#97D077;" vertex="1" parent="1">
          <mxGeometry x="645" y="345" width="40" height="40" as="geometry" />
        </mxCell>
        <mxCell id="8gLS4Bl_DGE-_Ln-u56_-23" value="" style="shape=partialRectangle;html=1;whiteSpace=wrap;collapsible=0;dropTarget=0;pointerEvents=0;fillColor=none;top=0;left=0;bottom=0;right=0;points=[[0,0.5],[1,0.5]];portConstraint=eastwest;" vertex="1" parent="8gLS4Bl_DGE-_Ln-u56_-22">
          <mxGeometry width="40" height="40" as="geometry" />
        </mxCell>
        <mxCell id="8gLS4Bl_DGE-_Ln-u56_-24" value="jobID" style="shape=partialRectangle;html=1;whiteSpace=wrap;connectable=0;overflow=hidden;fillColor=none;top=0;left=0;bottom=0;right=0;" vertex="1" parent="8gLS4Bl_DGE-_Ln-u56_-23">
          <mxGeometry width="40" height="40" as="geometry" />
        </mxCell>
        <mxCell id="8gLS4Bl_DGE-_Ln-u56_-25" value="" style="shape=table;html=1;whiteSpace=wrap;startSize=0;container=1;collapsible=0;childLayout=tableLayout;fillColor=#97D077;" vertex="1" parent="1">
          <mxGeometry x="580" y="345" width="40" height="40" as="geometry" />
        </mxCell>
        <mxCell id="8gLS4Bl_DGE-_Ln-u56_-26" value="" style="shape=partialRectangle;html=1;whiteSpace=wrap;collapsible=0;dropTarget=0;pointerEvents=0;fillColor=none;top=0;left=0;bottom=0;right=0;points=[[0,0.5],[1,0.5]];portConstraint=eastwest;" vertex="1" parent="8gLS4Bl_DGE-_Ln-u56_-25">
          <mxGeometry width="40" height="40" as="geometry" />
        </mxCell>
        <mxCell id="8gLS4Bl_DGE-_Ln-u56_-27" value="jobID" style="shape=partialRectangle;html=1;whiteSpace=wrap;connectable=0;overflow=hidden;fillColor=none;top=0;left=0;bottom=0;right=0;" vertex="1" parent="8gLS4Bl_DGE-_Ln-u56_-26">
          <mxGeometry width="40" height="40" as="geometry" />
        </mxCell>
        <mxCell id="8gLS4Bl_DGE-_Ln-u56_-28" value="" style="shape=table;html=1;whiteSpace=wrap;startSize=0;container=1;collapsible=0;childLayout=tableLayout;fillColor=#97D077;" vertex="1" parent="1">
          <mxGeometry x="710" y="345" width="40" height="40" as="geometry" />
        </mxCell>
        <mxCell id="8gLS4Bl_DGE-_Ln-u56_-29" value="" style="shape=partialRectangle;html=1;whiteSpace=wrap;collapsible=0;dropTarget=0;pointerEvents=0;fillColor=none;top=0;left=0;bottom=0;right=0;points=[[0,0.5],[1,0.5]];portConstraint=eastwest;" vertex="1" parent="8gLS4Bl_DGE-_Ln-u56_-28">
          <mxGeometry width="40" height="40" as="geometry" />
        </mxCell>
        <mxCell id="8gLS4Bl_DGE-_Ln-u56_-30" value="jobID" style="shape=partialRectangle;html=1;whiteSpace=wrap;connectable=0;overflow=hidden;fillColor=none;top=0;left=0;bottom=0;right=0;" vertex="1" parent="8gLS4Bl_DGE-_Ln-u56_-29">
          <mxGeometry width="40" height="40" as="geometry" />
        </mxCell>
        <mxCell id="8gLS4Bl_DGE-_Ln-u56_-53" value="" style="whiteSpace=wrap;html=1;aspect=fixed;shadow=1;strokeColor=#000000;fillColor=#FFFFFF;" vertex="1" parent="1">
          <mxGeometry x="480" y="40" width="220" height="220" as="geometry" />
        </mxCell>
        <mxCell id="8gLS4Bl_DGE-_Ln-u56_-54" value="" style="shape=partialRectangle;html=1;whiteSpace=wrap;collapsible=0;dropTarget=0;pointerEvents=0;fillColor=none;top=0;left=0;bottom=0;right=0;points=[[0,0.5],[1,0.5]];portConstraint=eastwest;" vertex="1" parent="1">
          <mxGeometry x="525" y="50" width="120" height="40" as="geometry" />
        </mxCell>
        <mxCell id="8gLS4Bl_DGE-_Ln-u56_-55" value="jobID" style="shape=partialRectangle;html=1;whiteSpace=wrap;connectable=0;overflow=hidden;fillColor=#97D077;top=0;left=0;bottom=0;right=0;" vertex="1" parent="8gLS4Bl_DGE-_Ln-u56_-54">
          <mxGeometry width="60" height="40" as="geometry" />
        </mxCell>
        <mxCell id="8gLS4Bl_DGE-_Ln-u56_-56" value="时间戳" style="shape=partialRectangle;html=1;whiteSpace=wrap;connectable=0;overflow=hidden;fillColor=#CC0000;top=0;left=0;bottom=0;right=0;" vertex="1" parent="8gLS4Bl_DGE-_Ln-u56_-54">
          <mxGeometry x="60" width="60" height="40" as="geometry" />
        </mxCell>
        <mxCell id="8gLS4Bl_DGE-_Ln-u56_-57" value="" style="shape=partialRectangle;html=1;whiteSpace=wrap;collapsible=0;dropTarget=0;pointerEvents=0;fillColor=none;top=0;left=0;bottom=0;right=0;points=[[0,0.5],[1,0.5]];portConstraint=eastwest;" vertex="1" parent="1">
          <mxGeometry x="525" y="90" width="120" height="40" as="geometry" />
        </mxCell>
        <mxCell id="8gLS4Bl_DGE-_Ln-u56_-58" value="jobID" style="shape=partialRectangle;html=1;whiteSpace=wrap;connectable=0;overflow=hidden;fillColor=#97D077;top=0;left=0;bottom=0;right=0;" vertex="1" parent="8gLS4Bl_DGE-_Ln-u56_-57">
          <mxGeometry width="60" height="40" as="geometry" />
        </mxCell>
        <mxCell id="8gLS4Bl_DGE-_Ln-u56_-59" value="时间戳" style="shape=partialRectangle;html=1;whiteSpace=wrap;connectable=0;overflow=hidden;fillColor=#CC0000;top=0;left=0;bottom=0;right=0;" vertex="1" parent="8gLS4Bl_DGE-_Ln-u56_-57">
          <mxGeometry x="60" width="60" height="40" as="geometry" />
        </mxCell>
        <mxCell id="8gLS4Bl_DGE-_Ln-u56_-60" value="" style="shape=partialRectangle;html=1;whiteSpace=wrap;collapsible=0;dropTarget=0;pointerEvents=0;fillColor=none;top=0;left=0;bottom=0;right=0;points=[[0,0.5],[1,0.5]];portConstraint=eastwest;" vertex="1" parent="1">
          <mxGeometry x="530" y="210" width="120" height="40" as="geometry" />
        </mxCell>
        <mxCell id="8gLS4Bl_DGE-_Ln-u56_-61" value="jobID" style="shape=partialRectangle;html=1;whiteSpace=wrap;connectable=0;overflow=hidden;fillColor=#97D077;top=0;left=0;bottom=0;right=0;" vertex="1" parent="8gLS4Bl_DGE-_Ln-u56_-60">
          <mxGeometry width="60" height="40" as="geometry" />
        </mxCell>
        <mxCell id="8gLS4Bl_DGE-_Ln-u56_-62" value="时间戳" style="shape=partialRectangle;html=1;whiteSpace=wrap;connectable=0;overflow=hidden;fillColor=#CC0000;top=0;left=0;bottom=0;right=0;" vertex="1" parent="8gLS4Bl_DGE-_Ln-u56_-60">
          <mxGeometry x="60" width="60" height="40" as="geometry" />
        </mxCell>
        <mxCell id="8gLS4Bl_DGE-_Ln-u56_-63" value="" style="shape=partialRectangle;html=1;whiteSpace=wrap;collapsible=0;dropTarget=0;pointerEvents=0;fillColor=none;top=0;left=0;bottom=0;right=0;points=[[0,0.5],[1,0.5]];portConstraint=eastwest;" vertex="1" parent="1">
          <mxGeometry x="530" y="170" width="120" height="40" as="geometry" />
        </mxCell>
        <mxCell id="8gLS4Bl_DGE-_Ln-u56_-64" value="jobID" style="shape=partialRectangle;html=1;whiteSpace=wrap;connectable=0;overflow=hidden;fillColor=#97D077;top=0;left=0;bottom=0;right=0;" vertex="1" parent="8gLS4Bl_DGE-_Ln-u56_-63">
          <mxGeometry width="60" height="40" as="geometry" />
        </mxCell>
        <mxCell id="8gLS4Bl_DGE-_Ln-u56_-65" value="时间戳" style="shape=partialRectangle;html=1;whiteSpace=wrap;connectable=0;overflow=hidden;fillColor=#CC0000;top=0;left=0;bottom=0;right=0;" vertex="1" parent="8gLS4Bl_DGE-_Ln-u56_-63">
          <mxGeometry x="60" width="60" height="40" as="geometry" />
        </mxCell>
        <mxCell id="8gLS4Bl_DGE-_Ln-u56_-66" value="" style="endArrow=none;dashed=1;html=1;dashPattern=1 3;strokeWidth=2;entryX=0.217;entryY=1.05;entryDx=0;entryDy=0;entryPerimeter=0;" edge="1" parent="1">
          <mxGeometry width="50" height="50" relative="1" as="geometry">
            <mxPoint x="556" y="165" as="sourcePoint" />
            <mxPoint x="556.04" y="132" as="targetPoint" />
            <Array as="points" />
          </mxGeometry>
        </mxCell>
        <mxCell id="8gLS4Bl_DGE-_Ln-u56_-67" value="" style="endArrow=none;dashed=1;html=1;dashPattern=1 3;strokeWidth=2;entryX=0.742;entryY=1.1;entryDx=0;entryDy=0;entryPerimeter=0;exitX=0.692;exitY=-0.025;exitDx=0;exitDy=0;exitPerimeter=0;" edge="1" parent="1" source="8gLS4Bl_DGE-_Ln-u56_-63" target="8gLS4Bl_DGE-_Ln-u56_-57">
          <mxGeometry width="50" height="50" relative="1" as="geometry">
            <mxPoint x="370" y="380" as="sourcePoint" />
            <mxPoint x="420" y="330" as="targetPoint" />
          </mxGeometry>
        </mxCell>
        <mxCell id="8gLS4Bl_DGE-_Ln-u56_-68" value="按&lt;br&gt;时&lt;br&gt;间&lt;br&gt;排&lt;br&gt;序" style="shape=singleArrow;direction=south;whiteSpace=wrap;html=1;shadow=1;strokeColor=#000000;fillColor=#97D077;" vertex="1" parent="1">
          <mxGeometry x="480" y="90" width="34" height="90" as="geometry" />
        </mxCell>
        <mxCell id="8gLS4Bl_DGE-_Ln-u56_-69" value="" style="edgeStyle=elbowEdgeStyle;elbow=horizontal;endArrow=classic;html=1;exitX=-0.005;exitY=0.105;exitDx=0;exitDy=0;exitPerimeter=0;" edge="1" parent="1" source="8gLS4Bl_DGE-_Ln-u56_-53">
          <mxGeometry width="50" height="50" relative="1" as="geometry">
            <mxPoint x="590" y="380" as="sourcePoint" />
            <mxPoint x="479" y="360" as="targetPoint" />
            <Array as="points">
              <mxPoint x="410" y="350" />
              <mxPoint x="390" y="210" />
            </Array>
          </mxGeometry>
        </mxCell>
        <mxCell id="8gLS4Bl_DGE-_Ln-u56_-70" value="监控进程将延时队列中到期的消息迁移到即时队列中&lt;br&gt;&lt;div&gt;&lt;span style=&quot;font-size: 11px&quot;&gt;1. zrangebyscore&amp;nbsp; delayed -inf time =&amp;gt; val&lt;/span&gt;&lt;/div&gt;&lt;div&gt;&lt;span style=&quot;font-size: 11px&quot;&gt;2. zremrangebyrank&amp;nbsp; delayed 0&amp;nbsp; (var - 1)&lt;/span&gt;&lt;/div&gt;&lt;div&gt;&lt;span style=&quot;font-size: 11px&quot;&gt;3. lpuh waiting&amp;nbsp;jobId&lt;/span&gt;&lt;/div&gt;" style="edgeLabel;html=1;align=left;verticalAlign=middle;resizable=0;points=[];" vertex="1" connectable="0" parent="8gLS4Bl_DGE-_Ln-u56_-69">
          <mxGeometry x="-0.0333" y="4" relative="1" as="geometry">
            <mxPoint x="-224" y="-4.2" as="offset" />
          </mxGeometry>
        </mxCell>
        <mxCell id="8gLS4Bl_DGE-_Ln-u56_-71" value="delayed（延时队列）" style="text;html=1;align=center;verticalAlign=middle;resizable=0;points=[];autosize=1;" vertex="1" parent="1">
          <mxGeometry x="520" y="260" width="130" height="20" as="geometry" />
        </mxCell>
        <mxCell id="8gLS4Bl_DGE-_Ln-u56_-97" value="生产者" style="ellipse;whiteSpace=wrap;html=1;shadow=1;strokeColor=#000000;fillColor=#67AB9F;" vertex="1" parent="1">
          <mxGeometry x="40" y="350" width="80" height="35" as="geometry" />
        </mxCell>
        <mxCell id="8gLS4Bl_DGE-_Ln-u56_-98" value="" style="endArrow=classic;html=1;entryX=-0.005;entryY=0.629;entryDx=0;entryDy=0;exitX=1;exitY=0.5;exitDx=0;exitDy=0;entryPerimeter=0;" edge="1" parent="1" source="8gLS4Bl_DGE-_Ln-u56_-97">
          <mxGeometry relative="1" as="geometry">
            <mxPoint x="241.03999999999996" y="368.0050000000001" as="sourcePoint" />
            <mxPoint x="477.8000000000002" y="371.03" as="targetPoint" />
          </mxGeometry>
        </mxCell>
        <mxCell id="8gLS4Bl_DGE-_Ln-u56_-99" value="&lt;div style=&quot;text-align: left&quot;&gt;&amp;nbsp; &amp;nbsp; &amp;nbsp; &amp;nbsp; &amp;nbsp; &amp;nbsp; &amp;nbsp; &amp;nbsp; &amp;nbsp; &amp;nbsp;push()&lt;/div&gt;&lt;span style=&quot;font-size: 11px&quot;&gt;&lt;div style=&quot;text-align: left&quot;&gt;1. incr message_id =&amp;gt; jobId&lt;/div&gt;&lt;div style=&quot;text-align: left&quot;&gt;2. hset messages jobId message&lt;/div&gt;&lt;div style=&quot;text-align: left&quot;&gt;3. 延时发送：zadd&amp;nbsp; delayed jobId delayTime&lt;br&gt;&lt;/div&gt;&lt;/span&gt;" style="edgeLabel;resizable=0;html=1;align=center;verticalAlign=middle;" connectable="0" vertex="1" parent="8gLS4Bl_DGE-_Ln-u56_-98">
          <mxGeometry relative="1" as="geometry">
            <mxPoint x="-48.99" y="-1.7699999999999998" as="offset" />
          </mxGeometry>
        </mxCell>
        <mxCell id="8gLS4Bl_DGE-_Ln-u56_-100" value="" style="curved=1;endArrow=classic;html=1;entryX=0;entryY=0;entryDx=0;entryDy=0;" edge="1" parent="1" target="8gLS4Bl_DGE-_Ln-u56_-53">
          <mxGeometry width="50" height="50" relative="1" as="geometry">
            <mxPoint x="380" y="370" as="sourcePoint" />
            <mxPoint x="740" y="260" as="targetPoint" />
            <Array as="points">
              <mxPoint x="400" y="320" />
              <mxPoint x="330" y="300" />
              <mxPoint x="170" y="240" />
              <mxPoint x="160" y="180" />
              <mxPoint x="220" y="110" />
              <mxPoint x="340" y="70" />
            </Array>
          </mxGeometry>
        </mxCell>
        <mxCell id="8gLS4Bl_DGE-_Ln-u56_-103" value="" style="curved=1;endArrow=classic;html=1;entryX=0.433;entryY=-0.025;entryDx=0;entryDy=0;entryPerimeter=0;" edge="1" parent="1" target="8gLS4Bl_DGE-_Ln-u56_-15">
          <mxGeometry width="50" height="50" relative="1" as="geometry">
            <mxPoint x="380" y="370" as="sourcePoint" />
            <mxPoint x="740" y="310" as="targetPoint" />
            <Array as="points">
              <mxPoint x="370" y="420" />
              <mxPoint x="370" y="460" />
            </Array>
          </mxGeometry>
        </mxCell>
        <mxCell id="8gLS4Bl_DGE-_Ln-u56_-104" value="" style="curved=1;endArrow=classic;html=1;entryX=-0.008;entryY=0.125;entryDx=0;entryDy=0;entryPerimeter=0;" edge="1" parent="1" target="8gLS4Bl_DGE-_Ln-u56_-4">
          <mxGeometry width="50" height="50" relative="1" as="geometry">
            <mxPoint x="380" y="370" as="sourcePoint" />
            <mxPoint x="740" y="310" as="targetPoint" />
            <Array as="points">
              <mxPoint x="440" y="410" />
            </Array>
          </mxGeometry>
        </mxCell>
        <mxCell id="8gLS4Bl_DGE-_Ln-u56_-119" value="" style="shape=table;html=1;whiteSpace=wrap;startSize=0;container=1;collapsible=0;childLayout=tableLayout;fillColor=#97D077;" vertex="1" parent="1">
          <mxGeometry x="850" y="347.5" width="40" height="40" as="geometry" />
        </mxCell>
        <mxCell id="8gLS4Bl_DGE-_Ln-u56_-120" value="" style="shape=partialRectangle;html=1;whiteSpace=wrap;collapsible=0;dropTarget=0;pointerEvents=0;fillColor=none;top=0;left=0;bottom=0;right=0;points=[[0,0.5],[1,0.5]];portConstraint=eastwest;" vertex="1" parent="8gLS4Bl_DGE-_Ln-u56_-119">
          <mxGeometry width="40" height="40" as="geometry" />
        </mxCell>
        <mxCell id="8gLS4Bl_DGE-_Ln-u56_-121" value="jobID" style="shape=partialRectangle;html=1;whiteSpace=wrap;connectable=0;overflow=hidden;fillColor=none;top=0;left=0;bottom=0;right=0;" vertex="1" parent="8gLS4Bl_DGE-_Ln-u56_-120">
          <mxGeometry width="40" height="40" as="geometry" />
        </mxCell>
        <mxCell id="8gLS4Bl_DGE-_Ln-u56_-122" value="" style="shape=table;html=1;whiteSpace=wrap;startSize=0;container=1;collapsible=0;childLayout=tableLayout;fillColor=#97D077;" vertex="1" parent="1">
          <mxGeometry x="780" y="347.5" width="40" height="40" as="geometry" />
        </mxCell>
        <mxCell id="8gLS4Bl_DGE-_Ln-u56_-123" value="" style="shape=partialRectangle;html=1;whiteSpace=wrap;collapsible=0;dropTarget=0;pointerEvents=0;fillColor=none;top=0;left=0;bottom=0;right=0;points=[[0,0.5],[1,0.5]];portConstraint=eastwest;" vertex="1" parent="8gLS4Bl_DGE-_Ln-u56_-122">
          <mxGeometry width="40" height="40" as="geometry" />
        </mxCell>
        <mxCell id="8gLS4Bl_DGE-_Ln-u56_-124" value="jobID" style="shape=partialRectangle;html=1;whiteSpace=wrap;connectable=0;overflow=hidden;fillColor=none;top=0;left=0;bottom=0;right=0;" vertex="1" parent="8gLS4Bl_DGE-_Ln-u56_-123">
          <mxGeometry width="40" height="40" as="geometry" />
        </mxCell>
      </root>
    </mxGraphModel>
  </diagram>
</mxfile>
